{
    "asset" : {
        "generator" : "Khronos glTF Blender I/O v1.7.33",
        "version" : "2.0"
    },
    "scene" : 0,
    "scenes" : [
        {
            "name" : "Scene",
            "nodes" : [
                1
            ]
        }
    ],
    "nodes" : [
        {
            "mesh" : 0,
            "name" : "leaves"
        },
        {
            "children" : [
                0
            ],
            "mesh" : 1,
            "name" : "tree",
            "translation" : [
                0,
                0,
                -0.1588268280029297
            ]
        }
    ],
    "materials" : [
        {
            "doubleSided" : true,
            "name" : "Leaves.001",
            "pbrMetallicRoughness" : {}
        },
        {
            "doubleSided" : true,
            "name" : "Material.001",
            "pbrMetallicRoughness" : {}
        }
    ],
    "meshes" : [
        {
            "name" : "leaves.002",
            "primitives" : [
                {
                    "attributes" : {
                        "POSITION" : 0,
                        "NORMAL" : 1,
                        "TEXCOORD_0" : 2
                    },
                    "indices" : 3,
                    "material" : 0
                }
            ]
        },
        {
            "name" : "Mesh.003",
            "primitives" : [
                {
                    "attributes" : {
                        "POSITION" : 4,
                        "NORMAL" : 5
                    },
                    "indices" : 6,
                    "material" : 1
                }
            ]
        }
    ],
    "accessors" : [
        {
            "bufferView" : 0,
            "componentType" : 5126,
            "count" : 297664,
            "max" : [
                4.51783561706543,
                16.135419845581055,
                5.382359027862549
            ],
            "min" : [
                -4.982464790344238,
                4.808339595794678,
                -3.9789955615997314
            ],
            "type" : "VEC3"
        },
        {
            "bufferView" : 1,
            "componentType" : 5126,
            "count" : 297664,
            "type" : "VEC3"
        },
        {
            "bufferView" : 2,
            "componentType" : 5126,
            "count" : 297664,
            "type" : "VEC2"
        },
        {
            "bufferView" : 3,
            "componentType" : 5125,
            "count" : 446496,
            "type" : "SCALAR"
        },
        {
            "bufferView" : 4,
            "componentType" : 5126,
            "count" : 88992,
            "max" : [
                4.396391868591309,
                15.937946319580078,
                5.241814136505127
            ],
            "min" : [
                -4.7660627365112305,
                -0.008179910480976105,
                -3.7733476161956787
            ],
            "type" : "VEC3"
        },
        {
            "bufferView" : 5,
            "componentType" : 5126,
            "count" : 88992,
            "type" : "VEC3"
        },
        {
            "bufferView" : 6,
            "componentType" : 5125,
            "count" : 300672,
            "type" : "SCALAR"
        }
    ],
    "bufferViews" : [
        {
            "buffer" : 0,
            "byteLength" : 3571968,
            "byteOffset" : 0
        },
        {
            "buffer" : 0,
            "byteLength" : 3571968,
            "byteOffset" : 3571968
        },
        {
            "buffer" : 0,
            "byteLength" : 2381312,
            "byteOffset" : 7143936
        },
        {
            "buffer" : 0,
            "byteLength" : 1785984,
            "byteOffset" : 9525248
        },
        {
            "buffer" : 0,
            "byteLength" : 1067904,
            "byteOffset" : 11311232
        },
        {
            "buffer" : 0,
            "byteLength" : 1067904,
            "byteOffset" : 12379136
        },
        {
            "buffer" : 0,
            "byteLength" : 1202688,
            "byteOffset" : 13447040
        }
    ],
    "buffers" : [
        {
            "byteLength" : 14649728,
            "uri" : "Tree1.bin"
        }
    ]
}
