{
    "asset" : {
        "generator" : "Khronos glTF Blender I/O v1.7.33",
        "version" : "2.0"
    },
    "scene" : 0,
    "scenes" : [
        {
            "name" : "Scene",
            "nodes" : [
                1
            ]
        }
    ],
    "nodes" : [
        {
            "mesh" : 0,
            "name" : "leaves.002"
        },
        {
            "children" : [
                0
            ],
            "mesh" : 1,
            "name" : "tree.002",
            "translation" : [
                0,
                0,
                -0.03344535827636719
            ]
        }
    ],
    "materials" : [
        {
            "doubleSided" : true,
            "name" : "Leaves.002",
            "pbrMetallicRoughness" : {}
        },
        {
            "doubleSided" : true,
            "name" : "Material.001",
            "pbrMetallicRoughness" : {}
        }
    ],
    "meshes" : [
        {
            "name" : "leaves.004",
            "primitives" : [
                {
                    "attributes" : {
                        "POSITION" : 0,
                        "NORMAL" : 1,
                        "TEXCOORD_0" : 2
                    },
                    "indices" : 3,
                    "material" : 0
                }
            ]
        },
        {
            "name" : "Mesh.001",
            "primitives" : [
                {
                    "attributes" : {
                        "POSITION" : 4,
                        "NORMAL" : 5
                    },
                    "indices" : 6,
                    "material" : 1
                }
            ]
        }
    ],
    "accessors" : [
        {
            "bufferView" : 0,
            "componentType" : 5126,
            "count" : 226436,
            "max" : [
                4.613966464996338,
                16.023761749267578,
                4.448225975036621
            ],
            "min" : [
                -4.780093193054199,
                0.5831114649772644,
                -4.250483989715576
            ],
            "type" : "VEC3"
        },
        {
            "bufferView" : 1,
            "componentType" : 5126,
            "count" : 226436,
            "type" : "VEC3"
        },
        {
            "bufferView" : 2,
            "componentType" : 5126,
            "count" : 226436,
            "type" : "VEC2"
        },
        {
            "bufferView" : 3,
            "componentType" : 5125,
            "count" : 339654,
            "type" : "SCALAR"
        },
        {
            "bufferView" : 4,
            "componentType" : 5126,
            "count" : 118304,
            "max" : [
                4.484496116638184,
                15.860158920288086,
                4.434351444244385
            ],
            "min" : [
                -4.642541885375977,
                -0.012269865721464157,
                -4.105881690979004
            ],
            "type" : "VEC3"
        },
        {
            "bufferView" : 5,
            "componentType" : 5126,
            "count" : 118304,
            "type" : "VEC3"
        },
        {
            "bufferView" : 6,
            "componentType" : 5125,
            "count" : 400128,
            "type" : "SCALAR"
        }
    ],
    "bufferViews" : [
        {
            "buffer" : 0,
            "byteLength" : 2717232,
            "byteOffset" : 0
        },
        {
            "buffer" : 0,
            "byteLength" : 2717232,
            "byteOffset" : 2717232
        },
        {
            "buffer" : 0,
            "byteLength" : 1811488,
            "byteOffset" : 5434464
        },
        {
            "buffer" : 0,
            "byteLength" : 1358616,
            "byteOffset" : 7245952
        },
        {
            "buffer" : 0,
            "byteLength" : 1419648,
            "byteOffset" : 8604568
        },
        {
            "buffer" : 0,
            "byteLength" : 1419648,
            "byteOffset" : 10024216
        },
        {
            "buffer" : 0,
            "byteLength" : 1600512,
            "byteOffset" : 11443864
        }
    ],
    "buffers" : [
        {
            "byteLength" : 13044376,
            "uri" : "Tree3.bin"
        }
    ]
}
